{
  "accessors": [
    {
      "bufferView": 2,
      "componentType": 5126,
      "count": 2351,
      "max": [
        0.030400000512599945,
        0.02679000049829483,
        0.046574000269174576
      ],
      "min": [
        -0.029458999633789063,
        -0.03877599909901619,
        0.0008520000264979899
      ],
      "type": "VEC3"
    },
    {
      "bufferView": 2,
      "byteOffset": 28212,
      "componentType": 5126,
      "count": 2351,
      "max": [
        0.9998327493667603,
        0.9988786578178406,
        0.999364972114563
      ],
      "min": [
        -0.9992046356201172,
        -0.9997000098228455,
        -0.9996939897537231
      ],
      "type": "VEC3"
    },
    {
      "bufferView": 3,
      "componentType": 5126,
      "count": 2351,
      "max": [
        0.9856311082839966,
        0.9884350895881653,
        0.9998157620429993,
        1.0
      ],
      "min": [
        -0.9995502829551697,
        -0.996807336807251,
        -0.9795469045639038,
        -1.0
      ],
      "type": "VEC4"
    },
    {
      "bufferView": 1,
      "componentType": 5126,
      "count": 2351,
      "max": [
        0.9637359976768494,
        0.9997559785842896
      ],
      "min": [
        0.00024399999529123306,
        0.00024399999529123306
      ],
      "type": "VEC2"
    },
    {
      "bufferView": 0,
      "componentType": 5125,
      "count": 11181,
      "type": "SCALAR"
    }
  ],
  "asset": {
    "extras": {
      "author": "Meshfinder (https://sketchfab.com/meshfinder)",
      "license": "CC-BY-4.0 (http://creativecommons.org/licenses/by/4.0/)",
      "source": "https://sketchfab.com/3d-models/snail-shell-photogrammetry-1bedca252e4d46d7b92826271a578154",
      "title": "Snail Shell (Photogrammetry)"
    },
    "generator": "Sketchfab-11.97.0",
    "version": "2.0"
  },
  "bufferViews": [
    {
      "buffer": 0,
      "byteLength": 44724,
      "name": "floatBufferViews",
      "target": 34963
    },
    {
      "buffer": 0,
      "byteLength": 18808,
      "byteOffset": 44724,
      "byteStride": 8,
      "name": "floatBufferViews",
      "target": 34962
    },
    {
      "buffer": 0,
      "byteLength": 56424,
      "byteOffset": 63532,
      "byteStride": 12,
      "name": "floatBufferViews",
      "target": 34962
    },
    {
      "buffer": 0,
      "byteLength": 37616,
      "byteOffset": 119956,
      "byteStride": 16,
      "name": "floatBufferViews",
      "target": 34962
    }
  ],
  "buffers": [
    {
      "byteLength": 157572,
      "uri": "scene.bin"
    }
  ],
  "images": [
    {
      "uri": "textures/SnailShell_baseColor.jpeg"
    },
    {
      "uri": "textures/SnailShell_metallicRoughness.png"
    },
    {
      "uri": "textures/SnailShell_normal.png"
    }
  ],
  "materials": [
    {
      "doubleSided": true,
      "name": "SnailShell",
      "normalTexture": {
        "index": 2
      },
      "occlusionTexture": {
        "index": 1
      },
      "pbrMetallicRoughness": {
        "baseColorTexture": {
          "index": 0
        },
        "metallicRoughnessTexture": {
          "index": 1
        }
      }
    }
  ],
  "meshes": [
    {
      "name": "defaultMaterial",
      "primitives": [
        {
          "attributes": {
            "NORMAL": 1,
            "POSITION": 0,
            "TANGENT": 2,
            "TEXCOORD_0": 3
          },
          "indices": 4,
          "material": 0,
          "mode": 4
        }
      ]
    }
  ],
  "nodes": [
    {
      "children": [
        1
      ],
      "matrix": [
        1.0,
        0.0,
        0.0,
        0.0,
        0.0,
        2.220446049250313e-16,
        -1.0,
        0.0,
        0.0,
        1.0,
        2.220446049250313e-16,
        0.0,
        0.0,
        0.0,
        0.0,
        1.0
      ],
      "name": "Sketchfab_model"
    },
    {
      "children": [
        2
      ],
      "matrix": [
        1.0,
        0.0,
        0.0,
        0.0,
        0.0,
        -4.371139006309477e-08,
        0.999999999999999,
        0.0,
        0.0,
        -0.999999999999999,
        -4.371139006309477e-08,
        0.0,
        0.0,
        0.0,
        0.0,
        1.0
      ],
      "name": "Collada visual scene group"
    },
    {
      "children": [
        3
      ],
      "matrix": [
        100.0,
        0.0,
        0.0,
        0.0,
        0.0,
        -1.6e-05,
        -100.0,
        0.0,
        0.0,
        100.0,
        -1.6e-05,
        0.0,
        0.0,
        0.0,
        0.0,
        1.0
      ],
      "name": "Retopo_SnailShell"
    },
    {
      "mesh": 0,
      "name": "defaultMaterial"
    }
  ],
  "samplers": [
    {
      "magFilter": 9729,
      "minFilter": 9987,
      "wrapS": 10497,
      "wrapT": 10497
    }
  ],
  "scene": 0,
  "scenes": [
    {
      "name": "Sketchfab_Scene",
      "nodes": [
        0
      ]
    }
  ],
  "textures": [
    {
      "sampler": 0,
      "source": 0
    },
    {
      "sampler": 0,
      "source": 1
    },
    {
      "sampler": 0,
      "source": 2
    }
  ]
}
